<svg width="1019" height="273" viewBox="0 0 1019 273" fill="none" xmlns="http://www.w3.org/2000/svg">
<path d="M771.71 145.55V127.38L780.8 118.29V63.7099L753.52 36.4299H590.56L563.28 63.7099V118.28L572.38 127.38V145.55L563.29 154.64V209.19L590.57 236.47H753.53L780.81 209.19V154.65L771.71 145.55ZM744.9 191.03L735.81 200.12H608.29L599.2 191.03V163.74L608.29 154.65H735.81L744.9 163.74V191.03ZM744.9 109.19L735.81 118.28H608.29L599.2 109.19V81.8999L608.29 72.8099H735.81L744.9 81.8999V109.19Z" fill="#309BFC"/>
<path d="M836.71 81.9099V90.9999H800.8V63.7299L828.09 36.4299H990.84L1018.13 63.7199V109.19L836.71 181.93V200.11H973.1L982.19 191.02V181.93H1018.1V209.2L990.82 236.48H828.08L800.8 209.2V154.65L982.19 81.9099V72.8199H845.8L836.71 81.9099Z" fill="#309BFC"/>
<path d="M545.09 118.72V63.7099L517.81 36.4299H353L327.54 61.8899V118.43L336.62 127.51V145.69L327.54 154.78V236.47H363.46V163.73L372.55 154.64H500.07L509.16 163.73V236.47H545.07V154.5L536.27 145.7V127.52L545.07 118.72H545.09ZM509.18 109.19L500.09 118.28H372.57L363.48 109.19V81.9099L372.57 72.8199H500.09L509.18 81.9099V109.19Z" fill="#309BFC"/>
<path d="M281.84 145.48V127.29L290.94 118.19V27.31L263.63 0H27.3101L0 27.31V118.17L9.10986 127.28V145.47L0.00976562 154.57V245.58L27.3198 272.89H263.65L290.96 245.58V154.58L281.85 145.47L281.84 145.48ZM257.01 229.55L241.03 245.53H218.43L209.38 236.48H64.0801L36.7998 209.2V154.65L218.19 81.91V72.82H81.7998V72.64L72.5 81.94H49.8999L33.9199 65.96V43.36L49.8999 27.38H72.5L81.5498 36.43H226.85L254.14 63.72V109.19L72.7202 181.93V200.11H209.11V200.29L218.43 190.97H241.03L257.01 206.95V229.55Z" fill="#309BFC"/>
</svg>
