<svg width="1013" height="949" viewBox="0 0 1013 949" fill="none" xmlns="http://www.w3.org/2000/svg">
<path d="M980.37 506.04V442.76L1012.04 411.09V95L917.04 0H95.0098L0 95.01V411.07L31.7002 442.77V506.05L0.0400391 537.71V854.29L95.0298 949.28L917.06 949.3L1012.07 854.29V537.74L980.37 506.04ZM894.01 798.46L838.43 854.04H759.83L729.05 823.26H222.6L127.6 728.26V538.29L759.27 284.99V253.33H284.32L284.06 253.19L252.23 285.02H173.63L118.05 229.44V150.84L173.63 95.26H252.23L283.59 126.62H789.39L884.41 221.64V379.98L252.65 633.28V696.61H727.47L759.8 664.28H838.4L893.98 719.86V798.46H894.01Z" fill="#309BFC"/>
</svg>
